<mxfile host="app.diagrams.net" modified="2023-03-27T16:16:49.626Z" agent="Mozilla/5.0 (Macintosh; Intel Mac OS X 10_15_7) AppleWebKit/605.1.15 (KHTML, like Gecko) Version/16.3 Safari/605.1.15" etag="q046J2woh5o_pJaX4H3I" version="21.1.1" type="device">
  <diagram name="Page-1" id="pXeqCvG6lae6_XlMbDs7">
    <mxGraphModel dx="1026" dy="691" grid="1" gridSize="10" guides="1" tooltips="1" connect="1" arrows="1" fold="1" page="1" pageScale="1" pageWidth="827" pageHeight="1169" math="1" shadow="0">
      <root>
        <mxCell id="0" />
        <mxCell id="1" parent="0" />
        <mxCell id="kOdVWTgo--kpFilbCYGx-4" value="" style="ellipse;whiteSpace=wrap;html=1;strokeWidth=6;strokeColor=#808080;movable=1;resizable=1;rotatable=1;deletable=1;editable=1;locked=0;connectable=1;" parent="1" vertex="1">
          <mxGeometry x="330" y="256" width="300" height="404" as="geometry" />
        </mxCell>
        <mxCell id="kOdVWTgo--kpFilbCYGx-5" value="" style="ellipse;whiteSpace=wrap;html=1;strokeWidth=6;strokeColor=#808080;fillColor=#808080;" parent="1" vertex="1">
          <mxGeometry x="383" y="330" width="20" height="20" as="geometry" />
        </mxCell>
        <mxCell id="kOdVWTgo--kpFilbCYGx-8" value="" style="ellipse;whiteSpace=wrap;html=1;strokeWidth=6;strokeColor=#808080;fillColor=#808080;" parent="1" vertex="1">
          <mxGeometry x="460" y="440" width="20" height="20" as="geometry" />
        </mxCell>
        <mxCell id="kOdVWTgo--kpFilbCYGx-9" value="" style="ellipse;whiteSpace=wrap;html=1;strokeWidth=6;strokeColor=#808080;fillColor=#808080;" parent="1" vertex="1">
          <mxGeometry x="516" y="297" width="20" height="20" as="geometry" />
        </mxCell>
        <mxCell id="kOdVWTgo--kpFilbCYGx-10" value="" style="ellipse;whiteSpace=wrap;html=1;strokeWidth=6;strokeColor=#808080;fillColor=#808080;" parent="1" vertex="1">
          <mxGeometry x="370" y="490" width="20" height="20" as="geometry" />
        </mxCell>
        <mxCell id="kOdVWTgo--kpFilbCYGx-11" value="" style="ellipse;whiteSpace=wrap;html=1;strokeWidth=6;strokeColor=#808080;fillColor=#808080;" parent="1" vertex="1">
          <mxGeometry x="446" y="560" width="20" height="20" as="geometry" />
        </mxCell>
        <mxCell id="kOdVWTgo--kpFilbCYGx-12" value="" style="ellipse;whiteSpace=wrap;html=1;strokeWidth=6;strokeColor=#808080;fillColor=#808080;" parent="1" vertex="1">
          <mxGeometry x="560" y="500" width="20" height="20" as="geometry" />
        </mxCell>
        <mxCell id="kOdVWTgo--kpFilbCYGx-15" value="" style="ellipse;whiteSpace=wrap;html=1;strokeWidth=6;strokeColor=#808080;fillColor=#808080;" parent="1" vertex="1">
          <mxGeometry x="550" y="370" width="20" height="20" as="geometry" />
        </mxCell>
        <mxCell id="kOdVWTgo--kpFilbCYGx-17" value="" style="ellipse;whiteSpace=wrap;html=1;strokeWidth=6;strokeColor=#808080;fillColor=#808080;" parent="1" vertex="1">
          <mxGeometry x="240" y="434" width="20" height="20" as="geometry" />
        </mxCell>
        <mxCell id="kOdVWTgo--kpFilbCYGx-20" value="" style="endArrow=openThin;html=1;rounded=0;strokeWidth=4;endFill=0;" parent="1" edge="1">
          <mxGeometry width="50" height="50" relative="1" as="geometry">
            <mxPoint x="270" y="428" as="sourcePoint" />
            <mxPoint x="320" y="400" as="targetPoint" />
          </mxGeometry>
        </mxCell>
        <mxCell id="kOdVWTgo--kpFilbCYGx-21" value="" style="endArrow=openThin;html=1;rounded=0;strokeWidth=4;endFill=0;" parent="1" edge="1">
          <mxGeometry width="50" height="50" relative="1" as="geometry">
            <mxPoint x="270" y="460" as="sourcePoint" />
            <mxPoint x="320" y="490" as="targetPoint" />
          </mxGeometry>
        </mxCell>
        <mxCell id="kOdVWTgo--kpFilbCYGx-22" value="" style="endArrow=openThin;html=1;rounded=0;strokeWidth=4;endFill=0;" parent="1" edge="1">
          <mxGeometry width="50" height="50" relative="1" as="geometry">
            <mxPoint x="270" y="443" as="sourcePoint" />
            <mxPoint x="320" y="443" as="targetPoint" />
          </mxGeometry>
        </mxCell>
        <mxCell id="kOdVWTgo--kpFilbCYGx-23" value="" style="endArrow=openThin;html=1;rounded=0;strokeWidth=4;endFill=0;" parent="1" edge="1">
          <mxGeometry width="50" height="50" relative="1" as="geometry">
            <mxPoint x="380" y="480" as="sourcePoint" />
            <mxPoint x="389" y="358" as="targetPoint" />
          </mxGeometry>
        </mxCell>
        <mxCell id="kOdVWTgo--kpFilbCYGx-24" value="" style="endArrow=openThin;html=1;rounded=0;strokeWidth=4;endFill=0;" parent="1" edge="1">
          <mxGeometry width="50" height="50" relative="1" as="geometry">
            <mxPoint x="394" y="490" as="sourcePoint" />
            <mxPoint x="450" y="460" as="targetPoint" />
          </mxGeometry>
        </mxCell>
        <mxCell id="kOdVWTgo--kpFilbCYGx-25" value="" style="endArrow=openThin;html=1;rounded=0;strokeWidth=4;endFill=0;" parent="1" edge="1">
          <mxGeometry width="50" height="50" relative="1" as="geometry">
            <mxPoint x="450" y="550" as="sourcePoint" />
            <mxPoint x="399" y="356" as="targetPoint" />
          </mxGeometry>
        </mxCell>
        <mxCell id="kOdVWTgo--kpFilbCYGx-27" value="" style="endArrow=openThin;html=1;rounded=0;strokeWidth=4;endFill=0;" parent="1" edge="1">
          <mxGeometry width="50" height="50" relative="1" as="geometry">
            <mxPoint x="550" y="500" as="sourcePoint" />
            <mxPoint x="490" y="460" as="targetPoint" />
          </mxGeometry>
        </mxCell>
        <mxCell id="kOdVWTgo--kpFilbCYGx-28" value="" style="ellipse;whiteSpace=wrap;html=1;strokeWidth=6;strokeColor=#808080;fillColor=#808080;" parent="1" vertex="1">
          <mxGeometry x="460" y="360" width="20" height="20" as="geometry" />
        </mxCell>
        <mxCell id="kOdVWTgo--kpFilbCYGx-30" value="" style="endArrow=openThin;html=1;rounded=0;strokeWidth=4;endFill=0;" parent="1" edge="1">
          <mxGeometry width="50" height="50" relative="1" as="geometry">
            <mxPoint x="550" y="520" as="sourcePoint" />
            <mxPoint x="480" y="560" as="targetPoint" />
          </mxGeometry>
        </mxCell>
        <mxCell id="kOdVWTgo--kpFilbCYGx-31" value="" style="endArrow=openThin;html=1;rounded=0;strokeWidth=4;endFill=0;" parent="1" edge="1">
          <mxGeometry width="50" height="50" relative="1" as="geometry">
            <mxPoint x="540" y="380" as="sourcePoint" />
            <mxPoint x="490" y="370" as="targetPoint" />
          </mxGeometry>
        </mxCell>
        <mxCell id="kOdVWTgo--kpFilbCYGx-32" value="" style="endArrow=openThin;html=1;rounded=0;strokeWidth=4;endFill=0;" parent="1" edge="1">
          <mxGeometry width="50" height="50" relative="1" as="geometry">
            <mxPoint x="480" y="350" as="sourcePoint" />
            <mxPoint x="510" y="320" as="targetPoint" />
          </mxGeometry>
        </mxCell>
        <mxCell id="kOdVWTgo--kpFilbCYGx-33" value="" style="endArrow=openThin;html=1;rounded=0;strokeWidth=4;endFill=0;" parent="1" edge="1">
          <mxGeometry width="50" height="50" relative="1" as="geometry">
            <mxPoint x="408" y="345" as="sourcePoint" />
            <mxPoint x="450" y="360" as="targetPoint" />
          </mxGeometry>
        </mxCell>
        <mxCell id="kOdVWTgo--kpFilbCYGx-34" value="" style="endArrow=openThin;html=1;strokeWidth=4;endFill=0;curved=1;" parent="1" edge="1">
          <mxGeometry width="50" height="50" relative="1" as="geometry">
            <mxPoint x="458" y="437" as="sourcePoint" />
            <mxPoint x="484" y="437" as="targetPoint" />
            <Array as="points">
              <mxPoint x="444" y="417" />
              <mxPoint x="474" y="397" />
              <mxPoint x="504" y="417" />
            </Array>
          </mxGeometry>
        </mxCell>
        <mxCell id="kOdVWTgo--kpFilbCYGx-37" value="" style="endArrow=openThin;html=1;strokeWidth=4;endFill=0;curved=1;" parent="1" edge="1">
          <mxGeometry width="50" height="50" relative="1" as="geometry">
            <mxPoint x="575" y="393" as="sourcePoint" />
            <mxPoint x="549" y="393" as="targetPoint" />
            <Array as="points">
              <mxPoint x="590" y="410" />
              <mxPoint x="565" y="429" />
              <mxPoint x="540" y="419" />
            </Array>
          </mxGeometry>
        </mxCell>
        <mxCell id="kOdVWTgo--kpFilbCYGx-38" value="&lt;font style=&quot;font-size: 30px;&quot;&gt;Reservoir&lt;/font&gt;" style="text;html=1;strokeColor=none;fillColor=none;align=center;verticalAlign=middle;whiteSpace=wrap;rounded=0;fontSize=30;fontStyle=1" parent="1" vertex="1">
          <mxGeometry x="403" y="220" width="154" height="20" as="geometry" />
        </mxCell>
        <mxCell id="kOdVWTgo--kpFilbCYGx-39" value="&lt;font style=&quot;font-size: 30px;&quot;&gt;\(u\)&lt;br style=&quot;font-size: 30px;&quot;&gt;Input&lt;/font&gt;" style="text;html=1;strokeColor=none;fillColor=none;align=center;verticalAlign=middle;whiteSpace=wrap;rounded=0;fontSize=30;" parent="1" vertex="1">
          <mxGeometry x="173" y="490" width="154" height="20" as="geometry" />
        </mxCell>
        <mxCell id="kOdVWTgo--kpFilbCYGx-40" value="" style="shape=image;verticalLabelPosition=bottom;labelBackgroundColor=default;verticalAlign=top;aspect=fixed;imageAspect=0;image=data:image/png,iVBORw0KGgoAAAANSUhEUgAAAggAAAGXCAYAAADWJKhoAAAAAXNSR0IArs4c6QAAAERlWElmTU0AKgAAAAgAAYdpAAQAAAABAAAAGgAAAAAAA6ABAAMAAAABAAEAAKACAAQAAAABAAACCKADAAQAAAABAAABlwAAAAAIWnO1AABAAElEQVR4Ae2dC/gWVZnAD4IigggWKImE5iV1xbsGolHmJetBqUwzt4tGZtqutt7KJ580U7NdtbLClbbW8loJqGnmFVz+WKEZkt0gU2C9oKjgolz023knz8f55jsz38z3zf38zvPAzJzLe973d+Y/835nzkUpAgQgAAEIQAACEIAABCAAAQhAAAIQ6ESgXzDDLrvscuTgwYOD0VxDAAIQgAAEIOAAgfnz598hZrY5CH19fY3x48c7gAATIQABCEAAAhAIEujnBYnbKJjANQQgAAEIQAACEMBB4B6AAAQgAAEIQKCNAA5CGxIiIAABCEAAAhDAQeAegAAEIAABCECgjQAOQhsSIiAAAQhAAAIQwEHgHoAABCAAAQhAoI0ADkIbEiIgAAEIQAACEMBB4B6AAAQgAAEIQKCNAA5CGxIiIAABCEAAAhDAQeAegAAEIAABCECgjQAOQhsSIiAAAQhAAAIQwEHgHoAABCAAAQhAoI0ADkIbEiIgAAEIQAACEMBB4B6AAAQgAAEIQKCNAA5CGxIiIAABCEAAAhDAQeAegAAEIAABCECgjQAOQhsSIiAAgSCBMWPGqLPOOisYzTUEIFBjAv2CtvX19TXGjx8fjOYaAhBwmEC/fv94VDQaDYcpYDoE3CDg/b37f/D0ILjR3lgJAQhAAAIQSEQAByERLjJDAAIQgAAE3CCAg+BGO2MlBCAAAQhAIBEBHIREuMgMAQhAAAIQcIMADoIb7YyVEIAABCAAgUQEcBAS4SIzBCAAAQhAwA0COAhutDNWQgACEIAABBIRwEFIhIvMEIAABCAAATcI4CC40c5YCQEIQAACEEhEAAchES4yQwACEIAABNwggIPgRjtjJQQgAAEIQCARARyERLjIDAEIQAACEHCDAA6CG+2MlRCAAAQgAIFEBHAQEuEiMwQgAAEIQMANAjgIbrQzVkIAAhCAAAQSEcBBSISLzBCAAAQgAAE3COAguNHOWAkBCEAAAhBIRAAHIREuMkMAAhCAAATcIICD4EY7YyUEIAABCEAgEQEchES4yAwBCEAAAhBwgwAOghvtjJUQgAAEIACBRARwEBLhIjMEIAABCEDADQI4CG60M1ZCAAIQgAAEEhHAQUiEi8wQgAAEIAABNwjgILjRzlgJAQhAAAIQSEQAByERLjJDAAIQgAAE3CCAg+BGO2MlBDIj0Gg0lPwjQAAC9SKAg1Cv9sQaCOROYNiwYWrw4MG510uFEIBAtgQGZCse6RCAQN0JrFy5su4mYh8EnCRAD4KTzY7REIAABCAAgWgCOAjRfEiFAAQgAAEIOEkAB8HJZsdoCEAAAhCAQDQBHIRoPqRCAAIQgAAEnCSAg+Bks2M0BCAAAQhAIJoADkI0H1IhAAEIQAACThLAQXCy2TEaAhCAAAQgEE0AByGaD6kQcJLA0KFD1UYb8XhwsvExGgJvEuAJwK0AAQi0EVi1alVbHBEQgIBbBHAQ3GpvrIUABCAAAQjEIoCDEAsTmSAAAQhAAAJuEcBBcKu9sRYCkQRGjBihpk2bFpmHRAhAwA0COAhutDNWQiAWgeeff17NnDkzVl4yQQAC9SaAg1Dv9sU6CEAAAhCAQFcEcBC6wkYhCEAAAhCAQL0J4CDUu32xDgIQgAAEINAVARyErrBRCAIQgAAEIFBvAjgI9W5frIMABCAAAQh0RQAHoStsFIIABCAAAQjUmwAOQr3bF+sgAAEIQAACXRHAQegKG4UgAAEIQAAC9SaAg1Dv9sU6CEAAAhCAQFcEcBC6wkYhCEAAAhCAQL0J4CDUu32xDgKJCTQajcRlKAABCNSPAA5C/doUiyAAAQhAAAI9E8BB6BkhAiAAAQhAAAL1I4CDUL82xSIIQAACEIBAzwRwEHpGiAAI1IsAYxDq1Z5YA4FuCeAgdEuOchCoKYF+/frV1DLMggAEkhDAQUhCi7wQgAAEIAABRwjgIDjS0JgJgaQE5FPDsccem7QY+SEAgZoQwEGoSUNiBgTSImCOQbj55pvTEoscCECgYgRwECrWYKgLgawJ/O53vwut4uGHHw5NIwECEKgXARyEerUn1kCgZwLPP/98qIx99903NI0ECECgXgRwEOrVnlgDAQhAAAIQSIUADkIqGBECAQhAAAIQqBcBHIR6tSfWQAACEIAABFIhgIOQCkaEQAACEIAABOpFAAehXu2JNRCAAAQgAIFUCOAgpIIRIRCAAAQgAIF6EcBBqFd7Yg0EIAABCEAgFQI4CKlgRAgE4hPYaKON1MUXX6ymT58evxA5IQABCORMoG3btr6+vsb48eNzVoPqIOAOAXO3RHNZ4zIQMHXT+oiOZrzW+dBDD1WzZ89W69at87PqeF2OIwQgUE0C3t+77xsMqKb6aA0BCKRNwHQCOsl+44031D333NMpG+kQgECFCfCJocKNh+oQSIvAyy+/nJYo5EAAAjUhgINQk4bEDAhAAAIQgECaBHAQ0qSJLAhUjMCee+6p9t9//4ppjboQgEAeBBiDkAdl6oBASQksWLBAdTO4sJsyJUWAWhCAQAgBehBCwBANAQhAAAIQcJkADoLLrY/tEIAABHIkcNppp6m3vvWtOdZIVb0QwEHohR5lIQABCEAgNoElS5aoF154IXZ+MhZLAAehWP7UDoHSE3j88cdLryMKQgAC6RPAQUifKRIhUCsCe+yxR63swRgIQCAeARyEeJzIBQFnCaxfv95Z2zG8NwKvv/66Wrx4cW9CKF0YARyEwtBTMQQgAIF6E5g8ebLaYYcd6m1kja3DQahx42Ja+Qhce+215VMKjSCQEYG1a9dmJBmxeRDAQciDMnVA4E0CZ5xxBiwgAAEIVIIADkIlmgklIQABCEAAAvkSwEHIlze1QQACEIAABCpBAAehEs2EknUh0K9fv7qYgh0QgEDNCeAg1LyBMQ8CJoGVK1eqV1991YziHAIQgICVALs5WrEQCYFsCKxYsSIbwTGlDh8+XPXv318xujwmMLJBwGECOAgONz6m50+g6G2S33jjDSX/CBCAAAQ6EcBB6ESIdAjUkIA4CQsXLqyhZZgEAQikRYAxCGmRRA4EeiCwatUqlWfvwhe/+EXFHgs9NBhFIeAAARwEBxoZE8tPYOjQoeq4447LXdE8nZLcjaNCCECgJwI4CD3hozAE0iPw3HPPpScMSRDokcDFF1/cowSKV50ADkLVWxD9IQABCGRA4LzzzmMnxgy4VkkkDkKVWgtdIQABCEAAAjkRwEHICTTVQAACEICAncC0adMUq4za2RQZi4NQJH3qhgAEIAABde+990KhhARwEErYKKgEgbITOPLII8uuIvpBAAI9EsBB6BEgxSHgIoFf/epXLpqNzRkR4PNCRmB7FIuD0CNAikPANQJ33XVXbJO/9a1vqWeffTZ2fjK6QUAcgnnz5jWNZT2OJopSnbDUcqmaA2UgkC8BeVDLw3ny5MmxKz7iiCOseUWO+UtQn59++um5rhJpVY7I0hEwdxXV90rplHRcIXoQHL8BML+6BD70oQ+pqVOnpmLAnDlzepYzffr0nmUgoN4Efvvb39bbwJpZh4NQswbFHHcIyEu9TC/l1157zR34WJqYwLhx49TTTz9tLUcPghVL4ZE4CIU3AQpAIJyArGbXy8NTxgA88cQT4RWkmMI20inCrKGolStXhlrFGIRQNIUm4CAUip/KIRBN4NZbb43O0CFVvv9vv/32HXKRDAE7gW6c04033tguLCK2m3oixJGUEgEchJRAIgYCEIBA3Qgk/WW/evVqtX79+rphcNYeHARnmx7DIaBSnV3Ar0C376h169a5DaCG1uMg1LBRMQkCnQjcdtttnbKQDoFE41822WQT9fOf/xxqNSKAg1CjxsQUCMQl8Le//S1u1sLzzZo1Sw0ZMqRwPVxUIOknhkceeSQxJhmzcN999yUuR4HsCeAgZM+YGiDgPIEf/ehHXTOQ3o7/+7//67o8BctNQMYsPP/88+VW0lHtcBAcbXjMLh8BeQlOmTIl1XEBZbFyzZo1ZVEFPRIQYFxJAlg1zIqDUMNGxaRqEpBV5mbOnKkef/zxWAYkHS2+dOnSWHLJBAFNIOknBhwKTa4eRxyEerQjVjhGYNWqVerll19OZPXPfvazRPnJDIE4BGTzrq233trPmtShiCOfPMURwEEojj01Q8An8JWvfCUxCZcexPwqTXx7pFYgDvvLL7+8uWNnnPypKYegzAngIGSOmAogEE3goosuaslQ1YfsokWLWuxI68IlZygtZmnJgX1aJKspBwehmu2G1jUmUNWH8ne+850at4qbpiV1VqPyr1271k2IFbYaB6HCjYfqEAgSmD9/fjAq1+uJEyeqj370o6nWGfXSSbUihLURWLFihRo1apSSJZTjhKo6t3FsczEPDoKLrY7NtSQg6wXst99+obZ9/etfD01LK2Hu3LlqxowZaYnz5fDSSRVnImHz5s1TzzzzjJIZNnGCbit9NMuEbfVs5uG8XARwEMrVHmgDgUTL25q4li9fbl62nVd1MRp6ENqaMreIpOzD8tschtyMoKKuCeAgdI2OghDIhgAP02y4IrU4Arvssou18hEjRljjiSwHARyEcrQDWkAgNgH5lWYba4BjERshGWMSSHpPheX/85//bK2xqr1aVmNqGDmghjZhEgQKJ/Dggw+qnXfeWY0cOTKxLmHdtKag4JTCAQMGqNdff93M0nL+2GOPtVxzAYE4BOLci6YcvWeGOApJy5pyOC8HAXoQytEOaFEzAgcffLDabbfdcrMq7JebVuDwww/Xp5U7drKtcgbVROGHHnpIDRw4sMWaa665puWai2oToAeh2u2H9iUmoH/Ry3GzzTZTN954Y27aylLMZqjyS5ZfomZL5nsedd88+eSTStY2uPvuu9uUiirXlpmI0hLAQSht06BYXQi89tpr/oP0T3/6UyyTbA9XiTNflLY8pvBtt922ZVfITvnNspxDQBMw7zkdp486LereYoyBplXNI58YqtluaF0BAvoBqr/LxlVZlzPz9/X1mZctzkJLwpsX8stu5cqVtiTiIBCbQNTL33afBgW/8cYbwajIaxyKSDy5J+Ig5I6cCl0hoB+u+lODK3aLnWPHjnXJ3NraGuUERKUJkG7ue5n2eOSRR9aWZ9UMw0GoWouhrxMEjjrqKCXfeMOCdj7C0ouMX79+faTuRepG3ekQkFkzUduNS4+X5FmwYEHiCpctW5a4DAWyIYCDkA1XpEKg42cAQSQv02BYvHixuvXWW9VBBx0UTLJey3K4BAhkQeDcc8+1ipXegTlz5ljTJFJm8XQbyuz8dmtTVcsxSLGqLYfepScQ50EnAxiDYcqUKX7U0qVLWwYamvnM7t0JEyaYSZxDIDUCScfPJKn4iCOOsGY3721rBiJzI0APQm6oqQgC7QRsg7i0YyFHcRIIEKgjgXXr1lnN0ve/NZHIXAngIOSKm8pcIhDnl9DWW2/dhsTmNAQzVe0h+uKLLwZNqOX1oEGD1OTJk2tpW9Coqt2DQf257kwAB6EzI3JAIDMCr776amayTcHPPvuseZn7+Ze+9KXc6yyiQvlkJNtu1y3EcXbTsjnPutLSua5ycBDq2rLYVTiBLH9hVfkhOnHiRBXWvWxrtCrbarOnLnFZ3d9Zya0L9zztwEHIkzZ1OUVAXmzysLvsssucsjvK2DVr1qi5c+eqCy+8MCobaRCAQAkI4CCUoBFQoV4EzAVibrnlFnXllVembmDUryxJy+vTReqGIbAUBEaPHt1Rj6h7sGNhMlSCAA5CJZoJJatEQHa5k1DUAzRJ932VuKJrfgSiFkHSWmR1n/FJSRMu/oiDUHwboEHNCGjHIMsHXZaya9YcmZhz0003dbWUcCbK5CDU5jDcfPPNmdSs/34yEY7QRARwEBLhIjMEIOA6AdkI67jjjlMXX3yxMyg+97nPqbymqorzm+UCTc40WgqG4iCkABEREPj2t7+t/vjHP7aAiLOeQUuBBBf8ykoAK+Ws3bKv8kvvf//3f9UFF1yQMkm7OOE7ZMgQdcopp9gzEJsbARyE3FBTUZ0J/Ou//qvaddddW0x86aWXWq57uTj//POV/HKtS+j2JVtV+6+//nq1+eabqyydxjTYlGkNB9tnjTRsREZ8AjgI8VmREwKFEbjvvvvUyJEjm/UzBqGJwj9ZtGiR+sUvftEaWaIrmd4pTlGZHYSPfOQjpVoFknu8+BuYzZqKbwM0qDGBNB9yZg9C1C/wgQMH1pjoBtNWr16tBg8e7L94jznmGPXoo48WNnNkg1bVPWNqbHXbLivN6UHIiixyIZAygSinIOWqKiHu6aefroSeKAmBqhLAQahqy6G3cwTMHgTnjMfg0hA4+uijS6MLimRLAAchW75Ih0CTQK8vePl+veWWW/ry0vx00VSQEwhEENArhD722GMRudJPkh0yTz755PQFI7EjARyEjojIAIENBPbcc081atSoDRGWs2XLlllilZo3b541PkmknovO54Yk1MibhED//v3VK6+80lbk4YcfbovLI0J2yFywYEEeVVFHgAAOQgAIlxCIIiBz2Z955pmWLHppZR0pi+gQ6kFAZo7oX871sKizFWWZaWH2kpnnnS0gR1oEcBDSIokcZwmMHz8+1PZLLrkkNI2E3ghE9aKE9eIkrXH58uVqxowZSYuRHwK1IICDUItmxIi8CES9lGw6zJ8/vxmd97fbZsU1PYlqC9mNcPbs2TW13A2zHnzwQTcMLbGVOAglbhxUqxcBWa6W8A8CUS/3tBj9/e9/T0tUi5xuurvzsLdFyQwuZAxNcDnxDKppinzqqaea55wUQ4CFkorhTq0QcJpANy/ZooClqWtZHYW+vj5/oalOjPfbb79CxmSk2QadbCR9AwEchA0sOINAZQhUfZ36sr4os7oBym7vxIkTY61CmceGU7Jstg44BppEMUcchGK4UysEeiLg2sj6KFjyEtlqq63aspgvmrbEnCPK7iDkjIPqKkKAMQgVaSjUhIBJ4MorrzQvnT9/9tln2xgEHQSZvjdmzBj13HPPteWNikjjV6x2EPQxqj7SIFAWAjgIZWkJ9KgFgby6/pO+5MoG99JLL42t0l//+ldr3pUrV1rjwyJl0OKSJUvUL3/5y7As1vg8utWtFTsaKQsjEcpBAAehHO2AFjUh8NJLL9XEkmzNSLIYzwMPPGBV5rvf/a41Pu3I733vez2LpOcgPkIbqzR6ceJrQE5NAAdBk+AIgRgEbA8vsxgPMpNGuufr169PV2CO0jrdNzmqQlUQiE0AByE2KjJCoDOBvD4xdNakfjk23njjREbNmjVLnXjiiYnKZJ35L3/5S9ZV1Fr+Hnvsoe67775a21gm43AQytQa6FJKAtIrYBsEZ1P2pptuskUT1wOBoUOHdlX61VdfVT/72c+aZdPo3RkyZIjSG2Y1Bcc40T0Ijz76aIzcZAkjIJs2nXbaaWHJxKdMAAchZaCIqyeBRx55JJZhX//612PlczHTiBEjYjtaJp/dd9/dvEz9XF744jzIvgudggxYnDZtWqdsSnZENIN2EPTRTOO8M4G5c+eqO++8088Iw8680sqBg5AWSeQ4SWDXXXd10u5ujH7++efV29/+9sRFs34hyMtHQtxNmdatW9fRhuAgTG0D61d0RBeawewNCs1EQqoEcBBSxYmwuhKwdU/LiyLPtenrxja4TkHW9tna0KyzU7rOq1/yf/jDH3RU7KN2FGIXyCjjNttso2T1xCoF3T5lYVgldt3qioPQLTnKOUEgakdA/cByAkQGRk6ZMiUDqd2L3GijeI9D7SCsXbs2dmX6pRbsWYgtIOWMsnGY7jlJWXSlxD3xxBMqSTtWyrgUlI33F5FCRYiAQBUJ6Ae7dgb0dRVtQedWAqtWrfLHHiR9QXQz3VLfN2VxEFpJVONK/w2mqe3222+vRo0alabIWsnCQahVc2JMmgT+/Oc/q+DLQD+kJk+enGZVTspauHBhoXbrttXbcH/zm99UM2fO7KhTnDEIIkScAe0YaKE4CJpE70eZwhrka5N6+OGHq0GDBtmS/Lg4MkIL1zwBB6HmDYx53RN45zvfqQ499NAWAfph8sILL8R6OLUU5qKUBHSbikMY57OHzi+zH+bPnx9q0+abb670Zwtd5nOf+5z61a9+FVqGhM4EhKVMJ/7hD3+onnnmmY4FhHfU8s0yHZZgJ4CDYOdCLAQgUEICX/7ylxNrJc6c9Pzo3p+gAP3yDsZ3upYloPfbb7/QbKtXr26mmXU8/PDDzXhO4hOYPn16/MzkTIUADkIqGBFSdwI//vGPW0yUFRNZ86AFSS4XnVaqHD9+fFvPzk9/+lOrbjfffHNbfJgTYWY0X/ZmfNR5N2Wi5LmcFtUb4DKXLGwfkIVQZEKgbgSuu+46Jf90kClu3Uxz0+U5dkeg04v2oYceUrLeghl0N78ZJ+c///nPg1HW68WLF/tjUQYM4HFpBURkbQnQg1DbpsUwCNSDgOkUfP/731fHHHNMpGFmfsmoHYSw3gEzvy2PrLAoMx56CWYdImfNmjX+J4958+b1Ija1skH9UhOcgaAkuj7++OMdNdDTVjtmdDADDoKDjY7JnQmwbXNnRlnmWLFihf8Cffrpp9uqkRX1okalmwXkZaIdhOeee85Map6bbW1zEHTGf//3f/dPk7ygdNlgGRkXIWHZsmU6C8cEBKLa6b//+7+bkmRmSqcgs1LM3sFO+V1Kx0FwqbVLautnPvMZf0pYmdQbPnx4mdSprS4f+chHrLYtXbrUj/+f//kfa3rUd2jzZSy/DoP7IkydOlV9+MMfVnfffbcvO87URsl41lln+fmTrgBpOiC+gJL9F+Y4lUzNpjrSo3PBBRc0r4Mnn/rUp9Q111wTjG67Nj8xnXDCCW3pRHi9b0CAQJEEbr/9dvWDH/xAhb0IitSNurMnkPVaCDKFLfhrUxZG+vWvf201LpjXlkk7FrY0W5z0hphOiy1PVnGyxoOMoYgK73nPe6KSS5cmzmGnTwcrV65s01vGpphtF+VkthV2NAIHwdGGL4vZ+vsfC8iUpUXy1eMvf/lL2wvc1CDqhR33pfvJT37SFOmfh8kNi5dfpd2Gq6++ujAHYZ999lE77LBDpOqdXraRhUuaKNNh9UJYWsX9999fHXbYYfoy8r5rZnL8BAfB8RugaPPDHshF60X9+RAIvuSTLHssWy93G8z7ztRBO6xBubfeemswqnn9t7/9TUV101922WXNvHmfmLblXXce9W233XbWauQ+0uM8dAbZd0HCkiVL/KN5D/gRgf/OP//82DNdAkVrc4mDUJumLNYQ8da76QXo9Ecq6UceeWSxxlF7LgTk/hk4cGDL92Vp/6QvuTj5ze5l876V8z/96U+J7JUVN0ePHh1ZJo5OkQIySrzqqqsykpyPWJkNIg5akvDkk0/62Ts5mF/72teUjI+SNVBkBcyyhE022UTltdQ7DkJZWr3ierz1rW9VcuPagqwXIAPFbA9JPcLcVk4/dO+8805bMnE1I6Dvj16Xvg12LdswyUA3HUwHQeJ22WUX31ExV0LUeW1H6XWQkfBRPQXaNlv5LOM6OeBf+MIXsqw+F9lJB4EedNBB/rTVBx98sEU/2+BTkS0LoslnorIEudd6nXYb1xYchLikyBdJQFa4C3sIyn4G8hC2bXIT9QBjClgkcicS5f6IukdsEMI+E9jySpzNEZAu6qQDKKMWzgr72wjTifhsCZg9SLqmHXfcUZ+2HGWPjrKFpPd4t/rjIHRLzsFysi1qNw86PZddl5Xd1S699FKfYNKHf9bY5Q/PnEeddX3IbyegpzhKimyIpO+b9pz2mL6+PmvCeeedZ423Oa6SMW69ugcibn6RrR/w7MsgNHoLSbjrmp566il9mtlR7ov3ve99mcjX91wmwg2hOAgGDE6jCcjOafr7neymtsUWW4QWOOWUU9p+mek/ZNld7Utf+pJftmwOwumnn656GbEeCoSEjgT0UsbBRWtsv/ZEWFjX8vHHH2+tK2wXxY033tiaP7hkszWTEakHwRlRzdPg4MuovM1CnMQi0M33+H333TdSdtg9ZysUtj/IOeeco+69915bkZ7jtIPZs6AOAnAQOgCqe7J+aXeyUw/o0WMGfve73ynbXGMtZ9q0aeqXv/ylf6nL2OoyHQTzu1qSP1BdZxrH4MjnNGQio3sCch89+uijVgHmnHZrhpiRYS/rWbNmxZTwj2xRa3l85StfscrK+j43/76sCtQgUtZ6kCAzSWzPmG5MlMGJncJdd92lZBbFsGHDrFk7jaWJ6j2SdpMpwGEBByGMDPGpEpDBhRMmTPBlysvxnnvuscoXb1iC7o6N08Wlf5lFPaT0r8Y77rhDDR06tFn3cccd1zzP60S+Nd5www15VUc9EQT0/TV//vyIXNkmxVmNr1cNrrzyyl5FUN4jIL2bW221ldLPE4Gy8847J2YjzyDpOerkaMi9ccQRR6i///3voXV0kiG9GObntKCgCy+8MBjVvA72SDUTUj6hByFloFUTJ6u86TECcsPKgEIdZO63eMlmkLyy5GzUSHH9h6GXuNU9CB/72Mda5ItcnUdWU5Qgnx7Eoej0Ykj6684XHvGfrKwn09UIxRDQvwJ17XvttZc+rd0xz6mF+m+7dhADBunFnrRjKclhXf+Boi2X0os5YsSIjg5CnK3eo34Y6Re87pltUeLNCxl/Ywb9XJW43//+92ZSZuc4CJmhLadguWmDi77oP6qgN3zUUUepT3ziEy2GyBQh2bRG5h9LMG9a/Qehexn0H4Hugps7d25bD4UuI46KhGuvvdY/Bmcw/Mu//Etzas9Xv/pVdfTRR/v50vhPbPnOd76ThihkdElg77337rJk9YqJM2T2kMnnuryCvADDxm7kpUMW9SQdLyI6RHXT62eiqavMapFnmjz/9FgsMz14rp9twXi51o5B1GcI89kqn9rkh1aUzrZ6eo3DQeiVYIXK62+ksmWuGcwbUeLlxg4b0KXL2RwEnaYdA33Uq50F/4iD9Ur54C9JLVNe4AcffLB/meYIZFmnftNNN2U3Nw26oOOzzz5bUM3FVGv+ss/DOdJ/z9Lt/pa3vKUYo0tWa9Q0VpsTtfvuu/vrY8R16OI4CPo5akNjOg+6xzbvTaVwEGwtU9M42wtZTNUvctPs2bNn+5f684CZJuf6xjZlitctfxS77rqrn13n0T0KQRkiWz47xA3awdDda1Je/+HElWHmk1X7gp9QzHTOIZAXAeldy9JJ0ms9yN+Q7ddxXnZmVc8ZZ5xhFS1jm8JC1CZWSZ8L8iNDxnNJkGnS8mNGfzY165edQ2WWlB6QLcs+66WfzXxyLu2knQS9bfWNN97oZ9t6662D2fO59uYQe898QtUJjBw5suHNImgx45Zbbml4d1HDWymu4d3Mfppcyz/Pm/aP+tr7g/OvN9tss4b3va3hbY/bku59avCvvZd/ixxdXo7eIJ7GZz/72cbb3va2lrJmnl7PvYE8vuzf/va3LbbGuei1bsr/496BQ3oc5G/F2wK78cgjjzS8gXdxbuPIPLptvBeLn09fc+y+zbyBjKHPM+/TkTXtP/7jPxre54Fm2j/90z81z6Ut5s2b5197jkZbO3k9Fi15Jf+YMWMi273XRK8Oe8jLQZAXi/frr1c7KB9CwGtd/6Yyk73v+36c18XoH73vYG03ni6X5Oh9k0tFTpI6g3m9XouG53E3vF9iDW/vhoY3wMf/gxT7vV9PDW99fR+F3HeSTzMIyuG6+wcn7NJn580sMv+EE5/rNvFG+Ptl9TXH9NtKmHq7Z4Y+C0899dTQtKTtse222ya+F5IU8PSxh6wcBK87p7H99ts3ddx8880b3jS4hnhH3veexi9+8YuG1/XSTDdPHnvssYY3X9iMinXufXNv3HfffS15valsDW9zj4a8KLzum5Y0uZD42267rfHKK680Lr74Yj9d4saOHduW1xaxzTbbNKQOb8Bfw5vC0vBG17Zl8wa4+DroBPEsvUF6/uVPfvKThtj7ox/9qHHBBRf4cRdddFHDWzPdPxed5YUswZtb7TtZXndVs7xw8roRmzfioEGDGt4UxYa3qFFDzr1Wb/47+eSTm+dmfFXP5X4ydZeH4p577tmMk7Yx0znfcC/AorwsvK2LG94YHN/h9abX+X/74uQGnQeJC/Y60K7lbdde2sbbp8a/D7L6z9PND/30iT6KgzB+/Hh9mdpRvqGcffbZqclDEAQgAAEIQMBFAt6nKBWc6ZUmB28sme8b5DZIUS+ak6YRyIIABCAAAQi4RsDrOcjF5NwchMGDB/sGed31/tx5b/CbeuKJJ/xzMVbiZWSnnFf5n0wh1DbmaYeMupX9EXSdeiEPmRYj3qb3yUQJcx30FBxZ16AuQWYlmPtDyCJMV1xxRXM3QLFZVkoLm5lRFw7YUR8Ccs/qv+lujnohMpGjz+tDx11LzGmyuVLIagzCd7/7Xf/7LwMTvT/znMKcOXNaBoLKN0rvZmq2g4xNOOSQQ5pxOi149JYv7ZgnWCav6w984ANN3bzpmg1vPXb/2ps61KTs7RnRWLBgQfNaTmRMTF46Uk89vwNn2a4yCO2Tn/ykP9i25cZNeOE5Bf59/sEPftAvmaXOrsv2Ps37Y+XCOEQNCvfWqQh9Hsk70yZTnudZBa8+e8jKQcjKEOQmIzBx4kT/ZtM3l56+KINE9eBG79dG49/+7d8a3nzexpAhQxre/Gy/Eu+O8cvK1Ed9LkeZEuktItISp9M32WQTa7xOT3KUB+Zpp53WMAcbyvRGkaGnbSahkaRu8vKSz+MekIHaH/3oR5PcxpF5tXPv7a7a8jechy11rEOejTKo3mabxEuwpX3rW99qSbv55pub+bxl5VvSjj322GaayJJgk6mf4X6GlP/z6rMHHISUSZdQnB4JLaqddNJJ/s2nZ3R4d0VD/ghsQdLkn/dpyJ8Boq8lr0wzlGs9k0BG2cq13MQyM0PnlaPIN6/jnmudvGWW/fLilEgQfbwVGHVy7KPUq/WNqwP5cBSyuAdk9pH36cv/W4l9A8fIqB0EnTUL3asoc6w3K23KlCmJnkP6eRP2i156CCQID28/h8b3vvc9/1zaVb/MJU1m83mLyDXrllltupz0+HifD5ppeuafjbGW6RdO+T+vPj/kNgZBV8ixeALmVqZ6n4Q4g0jlG78E2TFNVg6TNcm9aaR+nNcT4R+POeYYf5VF76WtZDVGzxlQevyJn8H7Ty8XGhz/IPstePOIO34rnT59uvJ6PJT32cAX6f2xq1GjRmnxiY5ig/cpRsWxP5FgMkMgAQH525JV8z7+8Y8nKEXWTgTMMUlmXtkMTp5hSYJ+joWN5dDPENnDRvZq8HptfPEHHHBAcxyU7DopKzh6PavNqs2xYbJCorlK4l//+tdmviJOcBCKoF6iOvUfkL7pvRW/Qpdi1Usy67zeZwj1nve8x7dGdoKUIOuVy80vToTeO8H8A/AcXX8pUpnyKsug6iVHpay3ToO/i6Pnofu7OkqcLcha8t5iSLakxHEyYFEcFXFkCMUScLUN9PK55ksjq5YQp7qOnPUzKcjNG/sWjGpeR3HoZqtvLU+WU5ZnmQR5Tnnr2TTrlC2pg0HnNeO9sVX+pR5Q7Y1JMZNzO8dByA11OSvyFmFR3jKfTeW++MUvNs+DJ96nAj9K9ySY6frG146CmTZp0iTz0n9AfeMb31De+Ab/X0vimxeypXTWQf6gtYOj/7izrhP5dgKyjr305sgsEwn6wWjPXf3Yww8/3DdCfnV635xzM0gceK9rOrf68qhIniP67zhuffL3HnWPmb/ibTJlS2gz7L///v6PIjNOzqWn89BDDw1G+9fS9uIc6J6J448/XnljE/w0bynmlhlZskGdt2Cevwuo/J3kFXAQ8iJd0nrE837Xu94VSzu5gaUHYMstt2zLb3MadKa4v4zMP9jhw4fr4v7x3HPPbblO40IelLvttlsaopDRI4Hly5crcU71PXDZZZf1KLG8xd/xjnc0f1XKxj5ZBhccX9nkyrZZk3TnR4UoNp2cKPMlPW7cOHX77bdHVWVN81bZVb/5zW+aadddd52aMGGCf33ppZe2bct93nnnqRtuuMHqiDSFpHyCg5AyUMR1T8DmeOgXhrfBVPeCY5QUx4dQPAHd3jKWpS7hzDPPVN6y6E1zvIHBzTEv+rt1M5GTxATkRZ/071fuszAHQbbEln9RQZw8CVdddZWS3WWDPQpRZXXaDjvsoKSnIGnQn1OS2py0Hsk/oJtClIFAkEAaN6s8SINBuuC8dQyavyyD6WldS0+CDBLzNnVKSyRyYhLwNtZq5ozb29QsUIETeQl0+kVaATNKq6K87A877DD/e3/U9s6mAXrslRkn59ttt13oM8CbPdXMfuCBB/oL4slYq7xDnnXmb13eNKmv8gT0r8osDfG21/XFh/2qyLJu12XrmTTC4de//rW/6mccJvIZynQu4pTJMo+8dF5++eW2Kmz3FA5DG6auI4Sv9MTMmDFDRX3qjFNBWE/AH//4R/XOd76zRUSeL2qzYt2DYMZldc4nhqzIOiZ3xx139C0eO3asY5ZjbpoEvH3ulbemRpoic5PlLdplrcvm4KbR42atzMFI7YDpYxwEklc2EIwbgs5B3HJZ5MNByIIqMjMlICOJ5aEn39XCQtKRxmFysozHwcmSbnzZcV6gcfLEr7E9Z1L5YS8om4OgH/K2tHZNuo9JakP3NRVXUnOXXoSFCxfGVmTkyJGx85Yp44knnug/a7O+d8RmehDK1PI11kUeVHpRpaCZMkVIPzDNtNtuu011Gols5k/jXBYxke5EQjkIfPrTnw5VpGwvP/2iCiocvLdlWtvee++tZM2RD33oQ8HsuV6H6ZyrEgkrCzrx5otSxhKFTVFMOnX6P//zP1NbbyWhiaXJjoNQmqZwVxH57iyLIwWDt8FM6DoJwbxpXcvDpkzdiWnZVVU5MhjMnApm2iGDStMIabwk5derHtkuOsmcdR2C8vWaIVFrjuiyWR/lb69qwduTpamyt8R62wBmuWdsITh12pbHjJs6dao/rVAWZnM14CC42vLYDYESE9Cry8mgs+ALVqudpDtZl7EdvU12bNGRcfJJzQx6lVEzrgrnYWyroHuYjl/72tfCkhLHy8Jd3iZ2icvVpQAOQl1aEjsgUCMC8n34D3/4Q3PfDptpemCsLc0WF9b1rFdvtJXRcXrZcH2tX6x33323Wr16tY5uOd56660t11z0RsCcZhglSa9MKHnifoYyl4OPku1aGg6Cay2OvbEILFq0KFY+MnVPQF6y5jr1QUl6NoN+GQfTk157u+QlLdLMf++99zbP5TOUHlcgA291b0czw5snaekdlJvmdRV01PZOmjRJn0YeOzkFm2++eVt5s33bEh2OwEFwuPExPZyA+T05PBcpvRCYOHGiOv/883sREats8HNAnELm2gzB/LJwlw7mADkd1+lYp1UiO9maZfpjjz1mHZAY5vRMnjzZV6fTKolZ6lw12TgIVWsx9IVATQjINttZB1mn3zb1NuxXpsTL7opR2+zKgES9VXDYy0jsCtuCvBunIitOe+21V1aiM5Ur7SQrVNr4609Juo1EERnLErbvinySkJlUhHYCOAjtTIiBAARKTmCnnXaKpWE3c91ld0XZXTIqxBkIl/X+IVH66TTZbticUaHj9VGclTx6cXR9aRxtToEpV5brFgdCVrY84YQTzCTruTh8ZXLarEoWFImDUBB4qoUABOIRsL0QHnjggXiFM8oVZ8pcWC9FRipZxc6aNUvJLoBRIe7gvygZeaTJi5yQLwEchHx5UxsEIJAxgTvvvDPTGuRFZXNagpXqgYzB+LJdy2eGOPYUrfcRRxzhq5CVrjI2QbZZJmwggIOwgQVnEIBABQjIbITg931Z1EYHeZEknQKpy8Y5ygsqzmZL8g189uzZqgqDEmWq5u677x7H/NrmkZ1cq7AcfJ4NgIOQJ23qggAEeiIwffp068h1WRY3zxD384Gsn5DVL9407RVnZtttt01TZOqyOo0LiVPh+PHj1TnnnBMnK3k8Amz3zG0AAQiUmoD5gj3ppJMidQ32LERmjpEoy+y+8MILbTnj9CC0FSKiawKyXkacBa06VdDX19eWxby/2hIdj6AHwfEbAPMhkBeBPL7J68WVTJvi/to3y3BeLgLmvcMLPb+2wUHIjzU1VZSAfsGceuqpao899qioFcWrbT7ks9Imr5cHPQhZteAGufvtt5+aMmXKhoguz84++2z13ve+t8vSbhfjE4Pb7Y/1CQnoF5AM6pL51m9/+9vVsmXLEkpxM7t2tMT6ww8/PBMIun30MaoSWWExuMdCML+ps5kWFm/m4bx3ArfcckvPYzi+8Y1vhCoiCyjdcccdoemuJ+AguH4HYH9XBPT6+0uXLu35AdaVAhUvNGbMmNgWxHnZa2G2vObLXNYvePHFF/3sq1at0sXUj3/8Y9VpfEMzs3dS1d0bTRs4V+q1114DQwQBPjFEwCEJAhBIj4C5SY65DG56NSirs2Z+2hgwwP6bSFbcW7NmTWxVkuSNLTTHjDNmzFA//OEPc6yxt6pMJ683SZROQgAHIQkt8kIgIYEs5+MnVKXw7LIIzdve9jZfjzwdhIcffljJngwSZDS8XnDHj+jwn/limjBhQjP3Jz7xCetyzGGr/SXpMWlWkuGJrJ74qU99KsMaehdt9gaFnfdeCxKiCOAgRNEhzWkCsqPj/fff7zSDNI2XxYyefPLJNEW2ybK9oOXlovdkOOWUU1S3Ky1qGVKpfGJavnx5W/3yyckWxo0bZ4suVdzee+9dKn20MtK78+lPf1pfcsyRgL2/LUcFqAoCZSWwaNGinlWTHeSidgbsuQIHBJi/HqPMlcFmSXoHomTptNdff12fxjqG9YyMGDEiVvkiM+lxNUXqYKtbxoeYIe79YJbhvDsC9CB0x41SjhGQh1I3S+ZutdVWjpEqztz3v//91jEIvWi0fv36XopXquznP//5pr5leAnbdJBxLIccckhTT06yJUAPQrZ8kV4TAt3Oe69C13LVm8gchJi2LaaDIL+wO20LbHuppa1TVvKGDRvWFD169Gi1ZMmS5nVZTlauXFkWVZzQgx4EJ5oZI4si0GmBljjbBhele1Xq7fTS7sWO0047rVn8+uuvZ1pckwYnLhDAQXChlbGxtARsg+pKq2xJFQv77p+GuubUTJFX9/Yyd8W08ZOFhfbZZx9bUupxVe6NSR1GQQJxEAoCT7VuEOj0kAubl+8GnXhWdmIYTwq54hC4+uqrI2eayDicOXPmxBFFnhoQwEGoQSNiQnkJdHq5VWF0e3npolnaBOR+LduaDWnbiLz4BHAQ4rMiJwSsBMzBXcEMnRyEYH6uy0kgy3EO5bQ4XCvu6XA2dUvBQahbi2JP7gROPPHEruvs9mF77bXXdl0nBeMT+OpXv6qefvrpjrMXtEQZsyAbQNlWKZTljW+//XadlWMHAt3+bXQQS3ICAjgICWCRFQI2ArLSW7fBXMo3iYwDDzwwSfbS5U3y8E+SVxvaTRldNnjceuutg1GR17Nnz1bbbLNNWx5Z3vgDH/hAW3yVIrq9X6tkI7puIMA6CBtYcAaBrgjstddeXZXrpVBVH9QyKPOuu+5SkyZN6sV8yhZEYN999019MaqgKXKPmOtPBNO5zo8APQj5saYmCDhL4LOf/WzT9sMOO0xtsskmzWtOqkHg+OOPV6effnrmyuqppGn2AmWudE0rwEGoacNiVjUIuPIQxCGoxv2otQyu/yDxQ4cO1cmZHlmePFO8iYTjICTCRWYIJCOwww47RBao6qeCSKNSTnTFiUoZW0/ivv/97/dUvtvC4pgsXry42+KUS5kADkLKQBEHAZNAp5eb7k41y3AOAVcJyHRSPaW009+Oq4zytBsHIU/a1FV7ApMnT1YLFiyw2ml74OmHobVARCQ9DxFwvKTrrrtOXXLJJdGZSE1EQN+/3HuJsFU6M7MYKt18KF82ArNmzVIvvviiVS35Dr9mzRprGpHpEpD9AvLaMyBdzcshDSegHO1QtBb0IBTdAtRfOwJhD9cvf/nLqdm67bbbpiar7IL0L9ey61kn/WBep9bs3hYchO7ZURICiQjstNNObfm7eRB/7GMfU7KrnitBj6g/6qijXDHZWTtHjx7dtL2bv41mYU5SIYCDkApGhEBgAwHbg00+L8hOeMEQ1tsQzJfkum4vUtk8aPXq1WrmzJlJMJC3BwJR92VUWpwq9Q6mtr+ThQsXNkV0Oz6nKYCTngngIPSMEAEQaCUwfPhwNXjw4JbIiy66qOVaX9gekjqN4wYCgwYN2nDBWeYEou7LqLQ4iv30pz/1s0V9cps2bZr6r//6rzjiyJMhAQYpZggX0e4S4NdPa9v3+lJplcZVEQR0G/bag6B1j/obOfnkk3U2jgUSoAehQPhU7RYB/YDtxurdd9+9WSyJHJnqt27dOrXZZps1y3MCgU4EopyAJPdfVD1pyYmqg7TeCOAg9MaP0hDwCZgv8LSRjBgxwl9bYe3atYlFf/7zn1fyzXf77bdPXDbNAu9617vSFNciS3/TbonkoicC+uU9bty4NjnyuSeLWTSbbrppW11EFEsAB6FY/tReEwK/+c1v1B133JHYGv0gjir43HPP+clxV12MIzOqvizSZKOfLIIsSrVs2bIsRCPTIzBs2DArhyy2rf72t79trYvI4ggwBqE49tRcIwLy6+f9739/Youy6Po3u4f1FMHEilWkQJY9NxVBkIma5j2kK0jb8UxbntaTY3oE6EFIjyWSIBBJwPZAvOeee1rKHHDAAWrIkCEtceaFdKfH3RlRBoHpOm0PfFMu5xCAAASCBOhBCBLhGgI5EtAvcF3lQw89pN773veq+++/X0e1HFesWNFxwGFQZosALiCQgACOZQJYNcyKg1DDRsWk4glIz8Djjz/eokgaL+4knwx4uLfg5wICEEhIAAchITCyQyAOgf3331/JvyICjkER1OtVp3Zm9VGsCzuvl+VYYxJgDIJJg3MI1ICAfpAz/a8GjVmQCdrJ1Mcs1ND3aRaykZkOARyEdDgiBQK5E9Bz0S+//HJr3TfddJM1nkgI5E3grLPOiqxS1lvIaipsZMUkRhLAQYjEQyIEWglMnTpVHXvssa2RCa5OPfXU0NydHqJhBc844wxlWyMhajZEmCziIZAFgXPPPbdtfxKzHllaObh/iZnOeTEEcBCK4U6tFSUgKxPeeOONmWh/2WWXZSIXoRAomkCnzwn9+/cvWkXqtxDAQbBAIQoCWRHo9KCUerP87puVXciFQCcCUT0EAwcO7FSc9AII4CAUAJ0q3SVge/n39fW1AInjREiBK664Ql111VUtZeVi9OjR6swzz1Tve9/72tKIgEC3BOLel1p+cLfGd7/73TrJP5ry4i7+1SKAi8wJMM0xc8RUAIFoAiNHjmzJYHMiWjK8efHhD3/YFu1vzvTNb37TmtZr5KGHHqruvvvuXsVQvuQE9Ms87r1oM8d0AGzppmx6EGyEio+jB6H4NkADCGROwHwY91JZ8FdhL7IoWy8CsmPo2LFjrUbZnAUdJ8eDDz7YWo7IYgngIBTLn9odI6AfiqbZ8mDdYostzKjSnqflaJTWQBRrIWC7X1syGBeyj0icsNtuu7Vke8c73qFkS3NC+QjgIJSvTdDIMQLyEH7ppZeaVjOiu4mCk4IJmA6h6SyY51pFM6+O00czv17Ay4zT+TiWiwAOQrnaA20goG6//Xb1yCOPlJoEayyUunlKp5zNebDFlU5xxxXCQXD8BsD88hHYdNNN1V577VU+xQyNyq6foSqnORGI6hEw0/S5PuakHtV0QQAHoQtoFIEABCDgGoG3vOUtkSabPQIyruDss89u5scZaKKo1AnTHCvVXCjrEgFZenm77bZL3WRZJ2Hp0qU9yY164MtMB0l//fXXe6qDwuUh8NRTTym990eYVuY9sWjRIvXGG2+oSy65JCx7y+6QoZlIKJQADkKh+KkcAuEEslp6+d5771U777xzeMU9psiLYv369bwAeuRY1+JDhw71TRs2bJjaZ599/IW96mpr1e3iE0PVWxD9IeARkE2g9IZNwWlkaQIyu5HTlIssdwhsueWWauHChf49O3/+fDVz5kx3jK+YpTgIFWsw1IWAjYAsu7x27Vq1ZMkS9ZnPfMaWpRm30047Nc85gUAUgR133NFPHjVqVEu2Y445Rsk4g7jB/PwgZcSJDcbFlUW+/AjgIOTHmpogkDkBGV+QR+Dhngfl4uuQT1HSa6TXLtAaTZo0SV155ZX6kmNNCeAg1LRhMQsCZSFw7LHHlkUV9EhA4OMf/3jLTIRORXEaOxGqXjoOQvXaDI0hkJiAHp8QVvALX/hCWFLX8Xq8Ajv1dY2w0II/+clPevoMgMNQaPOlUjkOQioYEQKBaAKDBw/2MxT10Jw9e3a0gqRCIGUCcq+bS4inLB5xORBgmmMOkKnCbQIyUnvvvfdugyDTvPIKaW8GFbdXQByj888/Py8zqadkBPR9V5RjXDIclVMHB6FyTYbCVSMgc73rEq6++mrV19enjj76aBVnP4ZXXnmlLqZjBwScI8AnBueaHIOLJKBHg8uYABkJXoVg/vqTlR1l8Jptx0lZi4HgDoHhw4e3GGveJy0JXFSWAA5CZZsOxatIQH55S7j++uvVjBkzqmhCqM68IELR1DLhwAMP9KdAauNGjhypTznWhAAOQk0aEjMgkCcBmzOgZy3kqQd1lYPAUUcdpS6//PJQZWz3S2hmEkpDAAehNE2BIhCoPoEDDjhABbueq28VFnQisNlmm3XKQnoFCeAgVLDRUBkCWRD44Ac/2LPYhx56SC1fvrxnOQioDoG5c+eqH/zgB6EKH3zwwUpP8w3NREIpCeAglLJZUAoC+RO45ppr8q+UGitPYMKECWrQoEGhdrAGRyia0ifgIJS+iVAQAukR2HTTTRML4/txYmQUgEAtCOAg1KIZMQIC+RKwOQ22uHy1oraiCVx44YUqzwXAira37vXjINS9hbEPAhCAQE4E/vmf/1m9+OKLOdVGNVkTwEHImjDyIVAiAuZUxIEDB5ZIM1SBAATKRgAHoWwtgj4QyIGALJc8c+bMZk1jxoxpnnd7Yjof3cqgHAQgUB4COAjlaQs0gUBuBMaPH99S15lnntlyzQUEIAABHATuAQg4RICBhA41NqZCoEcCOAg9AqQ4BKpEgM8AVWotdIVAsQRwEIrlT+0QqCQBW0+ELa6SxqE0BCDgE8BB4EaAAAQiCdj2VthoIx4dkdBIhEANCPBXXoNGxAQIZElg6dKlWYpHNgQgUFICOAglbRjUgkBZCHSzPHNZdEcPCECgewIDui9KSQhAoEoE7r//fvXUU09lpjIDIDNDi2AIFEIAB6EQ7FQKgfwJTJo0Kf9KqRECEKgsAT4xVLbpUBwC5SLALIZytQfaQKBXAjgIvRKkPAQgAAEIQKCGBHAQatiomAQBCEAAAhDolQAOQq8EKQ8BCEAAAhCoIQEGKdawUTGpvAQmTJigZsyYoY4++ujyKolmEIAABDwC9CBwG0AgRwIDBgzAOciRN1VBAALdE8BB6J4dJSEAAYMA6yAYMDiFQA0I4CDUoBExAQJlIMA0xzK0AjpAID0COAjpsUQSBJwkcMIJJzhpN0ZDoO4EcBDq3sLYB4GMCdBzkDFgxEOgIAI4CAWBp1oIQAACEIBAmQngIJS5ddANAhCAAAQgUBABHISCwFMtBKpAYNy4cVVQEx0hAIEMCOAgZAAVkRCoC4Hf//73dTEFOyAAgYQEcBASAiM7BCAAAQgkJzB8+PDkhShRKAEchELxUzkEqk+ABZKq34Z5WHD11VergBmP4wAABRxJREFUe+65J4+qqCMlAjgIKYFEDARcJcA0R1dbPrndhxxySPJClCiMAA5CYeipGAIQgAAEIFBeAjgI5W0bNINApgQGDx6cqXyEQwAC1SaAg1Dt9kN7CHRN4KCDDlJ8HugaHwUhUHsCOAi1b2IMhEA+BHA28uFMLRDIiwAOQl6kqQcCFSFw6qmnVkRT1IQABLIkgIOQJV1kQ6CCBHbeeeeutGa6Y1fYKASB0hLAQSht06AYBKpBAMegGu2ElhBISgAHISkx8kMAAi0EGHvQgoMLCNSGAA5CbZoSQyAAAQhAAALpEcBBSI8lkiBQWwIyJfKGG26orX0YBgEItBMY0B5FDAQgAIFWAnPmzGmNsFzxqcEChSgIVJgAPQgVbjxUhwAEIAABCGRFAAchK7LIhQAEIAABCFSYAA5ChRsP1SFQNIF99923qQLTHZsoOIFALQjgINSiGTECAsUQmDp1qsIxKIY9tUIgawI4CFkTRj4Eak6AwYk1b2DMc5YADoKzTY/hEIAABCAAgXACTHMMZ0MKBGpP4IADDlD77LOPb+egQYP84+DBg7uym56ErrBRCAKlJYCDUNqmQTEIZE9g3rx5zUq22GILtWLFCjV8+HB10kknNeOjTnAKouiQBoFqE+ATQ7XbD+0hkCoBcQ4IEIAABIQADgL3AQQgAAEIQAACbQRwENqQEAEBCMQl0L9//7hZyQcBCFSMAA5CxRoMdSFQBgLiGDzwwAPqxBNPbKrDeghNFJxAoBYEcBBq0YwYAYH8Cbz73e/Ov1JqhAAEciOAg5AbaiqCQL0JMKOh3u2Lde4RwEFwr82xGAIQgAAEINCRAA5CR0RkgAAEIAABCLhHAAfBvTbHYghAAAIQgEBHAjgIHRGRAQIQgAAEIOAeARwE99ociyEAAQhAAAIdCeAgdEREBghAIA6Bc845J0428kAAAhUhgINQkYZCTQiUncA222xTdhXRDwIQSEAAByEBLLJCAAIQgAAEXCGAg+BKS2MnBCAAAQhAIAEBHIQEsMgKAQhAAAIQcIUADoIrLY2dEIAABCAAgQQEcBASwCIrBCAAAQhAwBUCOAiutDR2QiAjAsOGDctIMmIhAIEiCeAgFEmfuiFQAwJXXHGFevDBB2tgCSZAAAImARwEkwbnEIBAYgL9+/dXEydOTFyOAhCAQLkJ4CCUu33QDgIQgAAEIFAIARyEQrBTKQQgAAEIQKDcBHAQyt0+aAcBCEAAAhAohAAOQiHYqRQCEIAABCBQbgI4COVuH7SDAAQgAAEIFEJgQCG1UikEIFBqAo8++qhavHhxqXVEOQhAIFsCOAjZ8kU6BCpJYI899lDyjwABCLhLgE8M7rY9lkMAAhCAAARCCeAghKIhAQIQgAAEIOAuARwEd9seyyEAAQhAAAKhBHAQQtGQAAEIQAACEHCXAA6Cu22P5RCAAAQgAIFQAjgIoWhIgAAEIAABCLhLAAfB3bbHcghAAAIQgEAoARyEUDQkQAACEIAABNwlgIPgbttjOQQgAAEIQCCUAA5CKBoSIAABCEAAAu4SwEFwt+2xHAIQgAAEIBBKAAchFA0JEIAABCAAAXcJ4CC42/ZYDgEIQAACEAglgIMQioYECEAAAhCAgLsEcBDcbXsshwAEIAABCIQSwEEIRUMCBCAAAQhAwF0C/Sym2+Is2YiCAAQgAAEIQKCGBBo1tAmTIAABCEAAAhCAAAQgAAEIQAACEIAABCAAAQhAAAIQyIfA/wMmLFcnxIEjKwAAAABJRU5ErkJggg==;" parent="1" vertex="1">
          <mxGeometry x="90" y="385.25" width="139.9" height="109.5" as="geometry" />
        </mxCell>
        <mxCell id="kOdVWTgo--kpFilbCYGx-41" value="&lt;font style=&quot;font-size: 30px;&quot;&gt;\(x\)&lt;br style=&quot;font-size: 30px;&quot;&gt;&lt;span style=&quot;background-color: rgb(255, 255, 255); font-size: 30px;&quot;&gt;Response&lt;/span&gt;&lt;br style=&quot;font-size: 30px;&quot;&gt;&lt;/font&gt;" style="text;html=1;strokeColor=none;fillColor=none;align=center;verticalAlign=middle;whiteSpace=wrap;rounded=0;fontSize=30;" parent="1" vertex="1">
          <mxGeometry x="403" y="580" width="154" height="40" as="geometry" />
        </mxCell>
        <mxCell id="kOdVWTgo--kpFilbCYGx-42" value="&lt;font style=&quot;font-size: 30px;&quot;&gt;\(W^{in}\)&lt;br style=&quot;font-size: 30px;&quot;&gt;&lt;/font&gt;" style="text;html=1;strokeColor=none;fillColor=none;align=center;verticalAlign=middle;whiteSpace=wrap;rounded=0;fontSize=30;" parent="1" vertex="1">
          <mxGeometry x="220" y="370" width="154" height="40" as="geometry" />
        </mxCell>
        <mxCell id="kOdVWTgo--kpFilbCYGx-43" value="&lt;font style=&quot;font-size: 30px;&quot;&gt;\(W\)&lt;br style=&quot;font-size: 30px;&quot;&gt;&lt;/font&gt;" style="text;html=1;strokeColor=none;fillColor=none;align=center;verticalAlign=middle;whiteSpace=wrap;rounded=0;fontSize=30;" parent="1" vertex="1">
          <mxGeometry x="446" y="430" width="154" height="40" as="geometry" />
        </mxCell>
      </root>
    </mxGraphModel>
  </diagram>
</mxfile>
